<?xml version="1.0" standalone="no"?>
<!DOCTYPE svg PUBLIC "-//W3C//DTD SVG 20010904//EN"
 "http://www.w3.org/TR/2001/REC-SVG-20010904/DTD/svg10.dtd">
<svg version="1.0" xmlns="http://www.w3.org/2000/svg"
 width="300.000000pt" height="291.000000pt" viewBox="0 0 300.000000 291.000000"
 preserveAspectRatio="xMidYMid meet">
<metadata>
Created by potrace 1.10, written by Peter Selinger 2001-2011
</metadata>
<g transform="translate(0.000000,291.000000) scale(0.100000,-0.100000)"
fill="#000000" stroke="none">
<path d="M2259 2291 c-36 -36 -36 -51 -3 -90 38 -45 83 -39 113 17 15 29 7 56
-26 82 -34 27 -49 25 -84 -9z m83 -27 c16 -34 0 -59 -38 -59 -22 0 -31 6 -38
27 -19 54 52 84 76 32z"/>
<path d="M903 2230 c-24 -10 -65 -39 -92 -65 -168 -157 -46 -457 187 -457 55
0 119 24 169 64 39 30 49 34 56 23 4 -9 5 -19 2 -24 -8 -15 47 -61 72 -61 35
0 73 22 78 44 3 12 6 50 7 85 l3 63 47 4 c64 6 78 -10 78 -90 0 -51 4 -67 20
-81 28 -25 85 -25 110 1 19 19 20 34 21 243 1 207 0 225 -18 242 -22 22 -79
27 -111 10 -19 -10 -22 -21 -23 -71 -1 -33 -3 -64 -4 -70 -1 -5 -3 -14 -4 -20
0 -5 -25 -10 -55 -10 -63 0 -66 4 -66 89 0 69 -18 91 -74 91 -52 0 -76 -15
-76 -48 0 -49 -13 -55 -46 -21 -68 74 -193 100 -281 59z m169 -22 c41 -12 128
-81 128 -101 0 -7 -19 -20 -41 -31 l-40 -18 -22 24 c-101 109 -275 1 -236
-146 13 -49 59 -93 106 -102 46 -9 107 10 132 41 l19 25 39 -22 c21 -12 40
-23 42 -25 3 -2 -11 -20 -30 -39 -123 -130 -334 -83 -394 87 -30 83 -13 165
47 233 66 76 155 103 250 74z m278 -83 l0 -95 95 0 95 0 0 95 0 95 45 0 45 0
0 -240 0 -240 -45 0 -45 0 0 100 0 100 -95 0 -95 0 0 -101 0 -100 -45 3 -45 3
-3 238 -2 237 48 0 47 0 0 -95z m-261 -71 l40 -26 45 26 c24 14 47 26 50 26 9
0 6 -172 -3 -193 -6 -17 -8 -17 -20 -3 -7 8 -28 20 -47 26 -32 11 -39 9 -72
-14 -51 -35 -89 -41 -132 -19 -42 22 -60 54 -60 108 0 50 24 82 75 99 44 16
63 11 124 -30z"/>
<path d="M1700 2222 c-12 -13 -16 -59 -18 -242 -3 -216 -2 -227 17 -244 30
-28 99 -25 123 4 16 20 18 44 18 241 0 206 -1 220 -20 239 -26 26 -98 27 -120
2z m110 -248 l0 -235 -47 3 -48 3 -3 233 -3 232 51 0 50 0 0 -236z"/>
<path d="M2255 2105 c-33 -32 -31 -60 4 -96 26 -26 32 -28 61 -18 46 17 66 51
50 89 -23 55 -75 66 -115 25z m77 -12 c10 -9 18 -24 18 -34 0 -23 -42 -51 -64
-43 -25 10 -31 51 -11 74 22 24 33 25 57 3z"/>
<path d="M2279 1952 c-16 -2 -32 -13 -40 -28 -16 -31 -15 -104 3 -115 7 -4 9
-11 5 -15 -3 -4 -12 -3 -19 3 -7 5 -28 10 -46 12 -24 2 -39 -4 -62 -27 -33
-33 -35 -46 -20 -88 18 -46 6 -59 -34 -35 -41 26 -77 27 -105 4 -16 -14 -21
-33 -25 -87 -5 -74 -14 -86 -55 -81 -14 1 -34 3 -43 4 -15 1 -18 11 -18 70 0
63 -2 71 -26 90 -15 12 -37 21 -49 21 -32 0 -75 -37 -75 -65 0 -33 -14 -38
-36 -13 -66 73 -196 100 -286 60 -82 -36 -133 -95 -162 -185 -5 -17 -8 -17
-28 -3 -12 9 -48 18 -80 22 -73 8 -76 24 -4 24 94 0 116 17 118 92 2 56 -26
68 -159 68 -88 0 -121 -4 -142 -16 -25 -15 -30 -15 -59 0 -43 22 -307 23 -339
1 -29 -20 -36 -58 -19 -99 13 -32 19 -36 65 -42 l51 -7 0 -161 c0 -191 5 -206
74 -206 72 0 76 10 76 202 l0 166 50 7 c28 4 50 11 50 16 0 5 5 9 10 9 6 0 10
-66 10 -177 1 -234 -8 -223 170 -223 124 0 133 1 151 23 13 16 17 31 12 57 -9
56 -28 70 -92 70 -31 0 -64 7 -74 14 -16 12 -15 14 14 20 17 3 46 6 63 6 17 0
41 7 53 15 20 14 22 13 34 -22 20 -61 48 -101 98 -137 104 -77 260 -68 340 18
31 33 41 33 41 -2 0 -39 28 -62 77 -62 57 0 76 24 78 103 1 35 5 69 9 75 8 14
82 16 90 3 3 -5 9 -41 12 -80 8 -82 24 -101 85 -101 29 0 42 6 56 26 l19 26
29 -26 c28 -26 76 -34 104 -17 7 5 28 4 47 -2 24 -7 45 -7 71 1 24 8 41 8 47
2 17 -17 91 -12 109 8 19 20 19 29 12 147 -3 44 -4 89 -4 100 5 114 -7 135
-80 135 l-47 0 4 40 c2 22 -1 46 -7 53 -7 9 -7 24 1 51 10 32 9 43 -6 71 -17
31 -17 35 -2 56 22 31 20 71 -4 101 -20 27 -47 35 -91 30z m75 -48 c19 -50 -1
-84 -49 -84 -39 0 -55 16 -55 55 0 41 5 45 56 45 29 0 44 -5 48 -16z m-135
-138 c7 -8 11 -30 9 -48 -3 -31 -5 -33 -46 -36 -38 -3 -43 -1 -53 25 -16 43 2
73 45 73 18 0 39 -6 45 -14z m131 -5 c16 -30 12 -69 -7 -78 -27 -13 -74 -8
-84 8 -13 20 -11 63 3 77 20 20 76 15 88 -7z m-1520 -158 l0 -48 -60 3 -60 4
0 -194 0 -193 -45 3 -45 4 0 190 0 190 -62 -4 -63 -3 -3 48 -3 47 170 0 171 0
0 -47z m336 0 l-3 -48 -91 1 -92 1 0 -49 0 -48 85 0 85 0 0 -45 0 -45 -85 0
-85 0 0 -50 0 -50 93 0 94 0 1 -45 0 -45 -139 0 -139 0 0 235 0 235 140 0 139
0 -3 -47z m381 26 c24 -11 57 -37 73 -57 l30 -37 -42 -21 -43 -22 -32 30 c-84
81 -233 14 -233 -104 0 -131 145 -205 235 -122 l28 25 45 -19 46 -20 -45 -45
c-52 -53 -108 -72 -188 -64 -158 17 -255 186 -191 335 24 55 73 105 124 128
48 21 143 17 193 -7z m243 -74 l0 -95 91 0 90 0 -2 93 -2 92 47 3 46 3 0 -235
0 -236 -45 0 -45 0 0 95 0 95 -91 0 -90 0 3 -95 3 -95 -47 0 -48 0 0 235 0
235 45 0 45 0 0 -95z m429 81 c7 -8 11 -30 9 -48 -3 -31 -6 -33 -43 -36 -29
-3 -43 1 -52 14 -16 22 -17 56 -1 72 17 17 73 15 87 -2z m129 2 c7 -7 12 -24
12 -38 0 -35 -17 -50 -57 -50 -42 0 -63 35 -45 75 9 19 19 25 45 25 18 0 38
-5 45 -12z m-837 -138 c52 -35 63 -36 111 -11 19 11 39 17 42 14 7 -8 8 -178
0 -185 -3 -3 -27 3 -53 13 l-48 18 -39 -27 c-39 -26 -76 -32 -124 -19 -29 7
-70 71 -70 107 0 59 58 119 116 120 12 0 41 -13 65 -30z m715 -4 c3 -13 4 -35
2 -47 -2 -20 -10 -25 -43 -27 -43 -4 -65 14 -65 53 0 31 19 45 62 45 31 0 39
-4 44 -24z m130 -1 c3 -14 3 -36 0 -50 -5 -21 -12 -25 -46 -25 -41 0 -60 18
-60 57 0 29 20 43 62 43 32 0 39 -4 44 -25z m122 13 c7 -7 12 -24 12 -38 0
-34 -17 -50 -55 -50 -38 0 -55 16 -55 50 0 34 17 50 55 50 17 0 36 -5 43 -12z
m-250 -157 c4 -40 -7 -53 -47 -56 -33 -3 -45 7 -54 44 -9 37 10 52 57 49 39
-3 41 -5 44 -37z m127 -6 l0 -40 -45 0 c-42 0 -45 2 -48 28 -6 49 3 58 50 55
43 -3 43 -3 43 -43z m131 21 c11 -45 -3 -66 -45 -66 -42 0 -61 14 -61 45 0 31
19 45 62 45 31 0 39 -4 44 -24z m-128 -142 l-3 -39 -45 0 -45 0 -3 42 -3 42
43 3 c24 2 47 0 51 -3 5 -4 7 -24 5 -45z m-130 4 c-3 -41 -5 -43 -36 -46 -43
-4 -62 12 -62 54 l0 34 51 0 50 0 -3 -42z m260 0 c-3 -42 -4 -43 -42 -46 -44
-4 -56 7 -56 56 0 32 0 32 51 32 l50 0 -3 -42z"/>
<path d="M540 1062 c-54 -27 -77 -94 -46 -137 11 -16 11 -22 -3 -46 -12 -22
-13 -32 -3 -53 14 -31 68 -66 102 -66 36 0 87 30 109 63 l18 29 22 -30 c21
-30 84 -62 123 -62 37 0 108 41 131 75 l23 33 22 -34 c29 -44 76 -68 136 -67
48 1 99 27 119 60 7 11 13 6 25 -19 20 -39 52 -47 89 -23 l25 17 -6 116 c-4
87 -10 120 -22 134 -23 24 -46 23 -72 -5 -19 -20 -22 -35 -22 -105 0 -48 -4
-82 -10 -82 -5 0 -10 5 -10 10 0 6 -12 15 -27 21 -21 8 -35 7 -60 -5 -36 -17
-59 -13 -74 15 -6 13 -6 25 3 39 18 28 33 31 67 14 38 -19 79 -9 94 23 10 23
8 29 -25 58 -67 62 -174 51 -229 -24 -27 -36 -35 -38 -44 -11 -9 27 -71 67
-117 75 -53 10 -115 -22 -151 -77 -15 -23 -27 -51 -27 -62 0 -19 -1 -19 -17
-4 -15 16 -15 19 1 43 16 25 16 28 1 52 -16 23 -70 53 -97 53 -7 0 -29 -8 -48
-18z m110 -39 l32 -26 -24 -13 c-19 -10 -26 -10 -40 3 -22 20 -63 13 -63 -10
0 -14 14 -24 50 -35 57 -19 82 -53 71 -95 -7 -29 -51 -57 -90 -57 -27 0 -86
44 -86 65 0 22 39 25 51 4 15 -29 73 -23 77 8 3 17 -4 23 -35 33 -65 21 -83
37 -83 75 0 24 7 39 26 54 36 28 76 26 114 -6z m266 11 c98 -47 90 -201 -12
-234 -130 -43 -224 107 -131 209 40 43 87 51 143 25z m334 -14 c36 -26 37 -34
8 -47 -18 -8 -29 -6 -49 10 -76 55 -161 -52 -94 -118 29 -30 64 -32 96 -6 18
15 28 16 46 8 30 -13 29 -21 -7 -47 -118 -84 -265 45 -190 168 38 63 126 78
190 32z m145 -105 l0 -125 -27 0 -28 0 0 125 0 125 28 0 27 0 0 -125z"/>
<path d="M825 989 c-51 -29 -60 -85 -20 -124 69 -70 180 29 118 104 -22 25
-71 35 -98 20z m70 -43 c18 -19 11 -50 -14 -63 -49 -24 -82 27 -45 68 16 18
39 15 59 -5z"/>
<path d="M2125 1073 c-11 -2 -30 -9 -43 -16 -18 -8 -28 -8 -42 1 -28 17 -54
15 -73 -6 -12 -13 -17 -41 -18 -105 -1 -82 -9 -111 -24 -87 -3 5 -15 10 -25
10 -34 0 -49 27 -49 89 1 67 -11 97 -42 106 -15 5 -28 0 -45 -16 -20 -21 -23
-34 -24 -114 -3 -145 -4 -141 35 -159 40 -19 130 -14 156 10 14 13 18 13 29
-1 18 -22 77 -19 90 4 5 11 10 55 10 98 0 87 9 113 30 88 7 -8 19 -15 26 -15
9 0 14 -12 15 -32 3 -127 15 -158 63 -158 39 0 56 34 56 112 0 62 2 68 29 87
16 12 32 21 35 21 3 0 6 -39 6 -88 0 -108 11 -128 76 -138 64 -9 122 9 130 42
4 17 1 31 -9 41 -12 12 -13 22 -5 45 7 20 7 37 0 52 -7 16 -6 27 4 41 35 48 0
87 -83 92 -42 2 -64 -2 -88 -17 -29 -18 -33 -18 -47 -3 -16 15 -124 25 -173
16z m-95 -153 l0 -130 -25 0 -25 0 0 130 0 130 25 0 25 0 0 -130z m258 102
c-3 -24 -7 -27 -35 -24 l-33 4 0 -106 0 -106 -29 0 -30 0 3 106 3 106 -39 -5
c-36 -5 -38 -4 -38 23 l0 28 101 1 100 0 -3 -27z m212 1 c0 -27 -2 -28 -47
-28 -45 0 -48 -2 -48 -25 0 -23 4 -25 45 -25 40 0 44 -2 44 -24 0 -22 -4 -25
-43 -25 -40 -1 -45 -3 -48 -28 -4 -27 -2 -28 47 -28 47 0 50 -2 50 -25 0 -24
-2 -25 -73 -25 l-74 0 -1 130 -2 130 75 0 75 0 0 -27z m-680 -83 l0 -100 51 0
c47 0 50 -2 47 -22 -3 -21 -9 -23 -75 -26 l-73 -3 0 126 0 125 25 0 c25 0 25
0 25 -100z"/>
<path d="M1501 986 c-51 -106 -69 -171 -55 -194 16 -25 60 -27 90 -3 33 26 54
26 87 1 32 -25 69 -26 91 -1 17 19 16 24 -24 127 -56 145 -63 154 -111 154
-38 0 -38 0 -78 -84z m152 -59 c26 -68 47 -126 47 -130 0 -4 -11 -7 -25 -7
-18 0 -28 7 -35 25 -8 22 -15 25 -60 25 -45 0 -52 -3 -60 -25 -7 -18 -17 -25
-35 -25 -14 0 -25 3 -25 8 0 9 78 209 91 233 5 11 20 19 33 19 20 0 28 -15 69
-123z"/>
<path d="M1566 946 c-3 -13 -9 -31 -12 -40 -5 -13 1 -16 26 -16 25 0 31 3 26
16 -3 9 -9 27 -12 40 -3 13 -10 24 -14 24 -4 0 -11 -11 -14 -24z"/>
</g>
</svg>
